<svg id="Icon_cog" data-name="Icon / cog" xmlns="http://www.w3.org/2000/svg" width="48" height="48" viewBox="0 0 48 48">
  <g id="MDI_cog" data-name="MDI / cog">
    <g id="Boundary" fill="#24b34b" stroke="rgba(0,0,0,0)" stroke-width="1" opacity="0">
      <rect width="48" height="48" stroke="none"/>
      <rect x="0.5" y="0.5" width="47" height="47" fill="none"/>
    </g>
    <path id="Path_cog" data-name="Path / cog" d="M24,31.7A7.7,7.7,0,1,1,31.821,24,7.76,7.76,0,0,1,24,31.7m16.6-5.566A16.841,16.841,0,0,0,40.755,24a18.534,18.534,0,0,0-.156-2.2l4.713-3.586a1.1,1.1,0,0,0,.268-1.408L41.113,9.194A1.106,1.106,0,0,0,39.75,8.71l-5.562,2.2a16.252,16.252,0,0,0-3.775-2.156l-.826-5.83A1.124,1.124,0,0,0,28.47,2H19.535a1.124,1.124,0,0,0-1.117.924l-.826,5.83a16.252,16.252,0,0,0-3.775,2.156L8.255,8.71a1.106,1.106,0,0,0-1.363.484L2.426,16.806a1.074,1.074,0,0,0,.268,1.408L7.407,21.8A18.533,18.533,0,0,0,7.25,24a16.84,16.84,0,0,0,.156,2.134L2.694,29.786a1.074,1.074,0,0,0-.268,1.408l4.467,7.612a1.131,1.131,0,0,0,1.363.484l5.562-2.222a15.569,15.569,0,0,0,3.775,2.178l.826,5.83A1.124,1.124,0,0,0,19.535,46H28.47a1.124,1.124,0,0,0,1.117-.924l.826-5.83a16.323,16.323,0,0,0,3.775-2.178L39.75,39.29a1.131,1.131,0,0,0,1.363-.484l4.467-7.612a1.1,1.1,0,0,0-.268-1.408Z" transform="translate(-0.271)" fill="#24b34b"/>
  </g>
</svg>
