<svg xmlns="http://www.w3.org/2000/svg" width="201.535" height="49.006" viewBox="0 0 201.535 49.006">
  <g id="Dragonfly_logo" data-name="Dragonfly logo" transform="translate(0.5 0.5)">
    <g id="Group_2406" data-name="Group 2406" transform="translate(0.002 0.003)">
      <path id="Union_10" data-name="Union 10" d="M23335.559-1453.347h4.719a7.646,7.646,0,0,0,7.633,7.633,7.642,7.642,0,0,0,7.633-7.633v-3.1a12.3,12.3,0,0,1-7.633,2.644,12.364,12.364,0,0,1-12.352-12.35,12.367,12.367,0,0,1,12.352-12.35,12.368,12.368,0,0,1,12.355,12.35v12.81a12.368,12.368,0,0,1-12.355,12.35A12.367,12.367,0,0,1,23335.559-1453.347Zm4.719-12.81a7.642,7.642,0,0,0,7.633,7.633,7.639,7.639,0,0,0,7.633-7.633,7.642,7.642,0,0,0-7.633-7.633A7.646,7.646,0,0,0,23340.277-1466.157Zm104.209,12.327h4.395a7.117,7.117,0,0,0,7.113,7.109,6.886,6.886,0,0,0,7.139-7.109v-2.862a11.511,11.511,0,0,1-7.145,2.479,11.523,11.523,0,0,1-11.508-11.461v-12.78h4.395v12.733a7.123,7.123,0,0,0,7.113,7.115,7.137,7.137,0,0,0,7.145-7.115v-12.733h4.4v24.624a11.54,11.54,0,0,1-3.193,8.11,11.466,11.466,0,0,1-8.346,3.4A11.525,11.525,0,0,1,23444.486-1453.83Zm-136.525-12.3a12.393,12.393,0,0,1,12.379-12.38,12.385,12.385,0,0,1,12.363,11.909h.012v12.374h-4.73v-2.179a12.316,12.316,0,0,1-7.645,2.656A12.393,12.393,0,0,1,23307.961-1466.127Zm4.729,0a7.658,7.658,0,0,0,7.65,7.651,7.656,7.656,0,0,0,7.645-7.651,7.656,7.656,0,0,0-7.645-7.651A7.657,7.657,0,0,0,23312.689-1466.127Zm-45.691-.006a12.347,12.347,0,0,1,12.334-12.327,12.243,12.243,0,0,1,7.65,2.668v-13.14h4.711v22.8h-.029a12.344,12.344,0,0,1-12.332,12.333A12.349,12.349,0,0,1,23267-1466.133Zm4.713,0a7.63,7.63,0,0,0,7.621,7.621,7.626,7.626,0,0,0,7.621-7.621,7.625,7.625,0,0,0-7.621-7.615A7.629,7.629,0,0,0,23271.711-1466.133Zm90.311-.035a12.347,12.347,0,0,1,12.332-12.333,12.343,12.343,0,0,1,12.332,12.333,12.343,12.343,0,0,1-12.332,12.333A12.347,12.347,0,0,1,23362.021-1466.169Zm4.711,0a7.63,7.63,0,0,0,7.621,7.621,7.626,7.626,0,0,0,7.621-7.621,7.63,7.63,0,0,0-7.621-7.621A7.634,7.634,0,0,0,23366.732-1466.169Zm-72.225,11.985v-10.807a13.178,13.178,0,0,1,13.164-13.163v4.712a8.456,8.456,0,0,0-8.451,8.452v10.807Zm145.525-.165a8.57,8.57,0,0,1-8.557-8.563v-26.02h4.729v26.02a3.837,3.837,0,0,0,3.828,3.834h3.859v4.729Zm-24.135-.183v-24.86a9.62,9.62,0,0,1,9.605-9.612h3.588v4.718h-3.588a4.9,4.9,0,0,0-4.895,4.894l.037,1h8.445v4.712h-8.445l-.037,19.153Zm-6.92,0v-11.638a7.63,7.63,0,0,0-7.621-7.621,7.634,7.634,0,0,0-7.621,7.621v11.638h-4.711v-11.638a12.347,12.347,0,0,1,12.332-12.333,12.343,12.343,0,0,1,12.332,12.333v11.638Z" transform="translate(-23267 1489)" fill="#cbcbcb" stroke="rgba(0,0,0,0)" stroke-width="1"/>
    </g>
  </g>
</svg>
