<svg id="cog" xmlns="http://www.w3.org/2000/svg" width="40" height="40" viewBox="0 0 40 40">
  <g id="MDI_cog" data-name="MDI / cog">
    <g id="Boundary" fill="#8b8b8b" stroke="rgba(0,0,0,0)" stroke-width="1" opacity="0">
      <rect width="40" height="40" stroke="none"/>
      <rect x="0.5" y="0.5" width="39" height="39" fill="none"/>
    </g>
    <path id="Path_cog" data-name="Path / cog" d="M20,26.3A6.3,6.3,0,1,1,26.38,20,6.34,6.34,0,0,1,20,26.3m13.541-4.554A13.816,13.816,0,0,0,33.67,20a15.205,15.205,0,0,0-.128-1.8l3.845-2.934a.9.9,0,0,0,.219-1.152L33.962,7.886a.9.9,0,0,0-1.112-.4l-4.538,1.8a13.251,13.251,0,0,0-3.08-1.764l-.674-4.77A.918.918,0,0,0,23.647,2h-7.29a.918.918,0,0,0-.911.756l-.674,4.77a13.251,13.251,0,0,0-3.08,1.764L7.154,7.49a.9.9,0,0,0-1.112.4L2.4,14.114a.88.88,0,0,0,.219,1.152L6.461,18.2A15.2,15.2,0,0,0,6.333,20a13.816,13.816,0,0,0,.128,1.746L2.616,24.734A.88.88,0,0,0,2.4,25.886l3.645,6.228a.921.921,0,0,0,1.112.4l4.538-1.818a12.694,12.694,0,0,0,3.08,1.782l.674,4.77a.918.918,0,0,0,.911.756h7.29a.918.918,0,0,0,.911-.756l.674-4.77a13.309,13.309,0,0,0,3.08-1.782L32.85,32.51a.921.921,0,0,0,1.112-.4l3.645-6.228a.9.9,0,0,0-.219-1.152Z" transform="translate(-0.271)" fill="#8b8b8b"/>
  </g>
</svg>
