<svg id="IVD" xmlns="http://www.w3.org/2000/svg" xmlns:xlink="http://www.w3.org/1999/xlink" width="98.375" height="98.375" viewBox="0 0 98.375 98.375">
  <defs>
    <clipPath id="clip-path">
      <rect id="Rectangle_2567" data-name="Rectangle 2567" width="98.375" height="98.375" fill="none"/>
    </clipPath>
  </defs>
  <g id="Group_2727" data-name="Group 2727" clip-path="url(#clip-path)">
    <path id="Path_20047" data-name="Path 20047" d="M16.1,101.648H99.921V49.267H16.1Zm81.2-2.619H18.716V51.887H97.3ZM36.39,88.539H30.638V62.376H36.39Zm10.858,0L38.784,62.376h5.9L50.51,80.77h.073l5.9-18.394h5.936L53.735,88.539ZM75.827,62.376a12.434,12.434,0,0,1,4.51.806A9.768,9.768,0,0,1,83.951,65.6a11.258,11.258,0,0,1,2.386,4.031,16.955,16.955,0,0,1,.86,5.679,18.89,18.89,0,0,1-.7,5.276,11.793,11.793,0,0,1-2.124,4.177,9.992,9.992,0,0,1-3.544,2.766,11.55,11.55,0,0,1-5,1.008H65.018V62.376ZM75.441,83.7a6.812,6.812,0,0,0,2.316-.4,5.069,5.069,0,0,0,2-1.338,6.786,6.786,0,0,0,1.4-2.437,11.153,11.153,0,0,0,.527-3.664,15.9,15.9,0,0,0-.368-3.573,7.292,7.292,0,0,0-1.21-2.73,5.4,5.4,0,0,0-2.229-1.74,8.56,8.56,0,0,0-3.421-.6H70.527V83.7Z" transform="translate(-8.648 -26.47)" fill="#161615"/>
  </g>
</svg>
