<svg id="CE" xmlns="http://www.w3.org/2000/svg" width="95.999" height="61.702" viewBox="0 0 95.999 61.702">
  <g id="c" transform="translate(0)">
    <g id="Group_2726" data-name="Group 2726" transform="translate(0)">
      <path id="Path_20045" data-name="Path 20045" d="M0,0H96V61.7H0V0" fill="none"/>
    </g>
  </g>
  <g id="d" transform="translate(5.129 5.043)">
    <path id="Path_20046" data-name="Path 20046" d="M129.091,110.437a25.219,25.219,0,1,1,0-50.437q1.277,0,2.522.124v7.619a17.68,17.68,0,0,0-19.769,13.692h14.725V89H111.844a17.674,17.674,0,0,0,19.769,13.691v7.62Q130.368,110.437,129.091,110.437ZM61,85.219a25.218,25.218,0,0,0,25.219,25.219,25.611,25.611,0,0,0,2.69-.141v-7.628a17.653,17.653,0,1,1,0-34.9V60.141A25.61,25.61,0,0,0,86.219,60,25.218,25.218,0,0,0,61,85.219Z" transform="translate(-61 -60)"/>
  </g>
</svg>
