<svg id="Icon_user-switch" data-name="Icon / user-switch" xmlns="http://www.w3.org/2000/svg" width="40" height="40" viewBox="0 0 40 40">
  <g id="MDI_account-switch" data-name="MDI / account-switch">
    <g id="Boundary" transform="translate(0 0)" fill="#8b8b8b" stroke="rgba(0,0,0,0)" stroke-width="1" opacity="0">
      <rect width="40" height="40" stroke="none"/>
      <rect x="0.5" y="0.5" width="39" height="39" fill="none"/>
    </g>
    <path id="Path_account-switch" data-name="Path / account-switch" d="M26.629,14.783c10.555,0,10.555,6.891,10.555,6.891V25.12H26.629V21.674a9.877,9.877,0,0,0-2.023-5.513,9.141,9.141,0,0,0-1.056-1.137,20.256,20.256,0,0,1,3.079-.241M2,21.674s0-6.891,10.555-6.891,10.555,6.891,10.555,6.891V25.12H2V21.674m12.315,6.891v3.446H24.87V28.566l5.278,5.169L24.87,38.9V35.457H14.315V38.9L9.037,33.735l5.278-5.169M12.555,1A5.217,5.217,0,0,0,7.278,6.169a5.279,5.279,0,0,0,10.555,0A5.217,5.217,0,0,0,12.555,1M26.629,1a5.217,5.217,0,0,0-5.278,5.169,5.279,5.279,0,0,0,10.555,0A5.217,5.217,0,0,0,26.629,1Z" transform="translate(0.408 0.048)" fill="#8b8b8b"/>
  </g>
</svg>
