<svg id="Icon_timer_2" data-name="Icon / timer 2" xmlns="http://www.w3.org/2000/svg"  viewBox="0 0 48 48">
  <path id="Union_11" data-name="Union 11" d="M0,25.266A19.749,19.749,0,0,1,20,5.783,20.232,20.232,0,0,1,32.93,10.4l3.652-3.561L39.67,9.859,35.939,13.5A19.075,19.075,0,0,1,40,25.266,19.748,19.748,0,0,1,20,44.75,19.748,19.748,0,0,1,0,25.266ZM8.955,14.5a14.929,14.929,0,0,0,0,21.523,15.9,15.9,0,0,0,22.1,0,14.947,14.947,0,0,0,0-21.523,15.921,15.921,0,0,0-22.1,0Zm8.855,12.59V13.7h4.379V27.092ZM13.127,4.26V0H26.873V4.26Z" transform="translate(4 1.252)" fill="#24b34b"/>
  <rect id="Rectangle_2464" data-name="Rectangle 2464"  fill="none"/>
</svg>
