<svg id="Icon_Alert" data-name="Icon / Alert" xmlns="http://www.w3.org/2000/svg" width="40" height="40" viewBox="0 0 40 40">
  <rect id="Rectangle_2564" data-name="Rectangle 2564" width="40" height="40" fill="none"/>
  <g id="Icon_feather-alert-triangle" data-name="Icon feather-alert-triangle" transform="translate(2.141 1.832)">
    <path id="Path_20042" data-name="Path 20042" d="M18.14,2.6a4.815,4.815,0,0,1,4.094,2.3l.005.008,12.807,21.38.014.024A4.788,4.788,0,0,1,30.966,33.5H5.313A4.788,4.788,0,0,1,1.22,26.314l.014-.024L14.041,4.909l.005-.008A4.815,4.815,0,0,1,18.14,2.6Zm1.075,4.132a1.26,1.26,0,0,0-2.151,0L4.27,28.088a1.26,1.26,0,0,0,1.075,1.88H30.935a1.26,1.26,0,0,0,1.075-1.88Z" transform="translate(0 0)" fill="#d94444"/>
    <path id="Path_20043" data-name="Path 20043" d="M18.014,21.326a1.764,1.764,0,0,1-1.764-1.764V13.514a1.764,1.764,0,0,1,3.528,0v6.048A1.764,1.764,0,0,1,18.014,21.326Z" transform="translate(0.126 0.073)" fill="#d94444"/>
    <circle id="Ellipse_1833" data-name="Ellipse 1833" cx="2.016" cy="2.016" r="2.016" transform="translate(16.124 24.095)" fill="#d94444"/>
  </g>
</svg>
